HIERARCHY
ROOT Hips
{
    OFFSET 0.000000 0.000000 0.000000
    CHANNELS 6 Xposition Yposition Zposition Zrotation Xrotation Yrotation
    JOINT Spine
    {
        OFFSET -0.000000 14.517291 0.000000
        CHANNELS 3 Zrotation Xrotation Yrotation
        JOINT Spine1
        {
            OFFSET -0.000000 37.558300 0.000000
            CHANNELS 3 Zrotation Xrotation Yrotation
            JOINT Neck
            {
                OFFSET -0.000000 37.404057 3.400369
                CHANNELS 3 Zrotation Xrotation Yrotation
                JOINT Head
                {
                    OFFSET -0.000000 24.785618 -3.540803
                    CHANNELS 3 Zrotation Xrotation Yrotation
                    End Site
                    {
                        OFFSET -0.000000 35.408028 0.000000
                    }
                }
            }
            JOINT LeftShoulder
            {
                OFFSET 6.992933 33.973492 -0.192664
                CHANNELS 3 Zrotation Xrotation Yrotation
                JOINT LeftArm
                {
                    OFFSET 21.527611 0.000000 0.000000
                    CHANNELS 3 Zrotation Xrotation Yrotation
                    JOINT LeftForeArm
                    {
                        OFFSET 56.353916 0.000000 0.000000
                        CHANNELS 3 Zrotation Xrotation Yrotation
                        JOINT LeftHand
                        {
                            OFFSET 47.774071 0.000000 0.000000
                            CHANNELS 3 Zrotation Xrotation Yrotation
                            End Site
                            {
                                OFFSET 26.556021 0.000000 0.000000
                            }
                        }
                    }
                }
            }
            JOINT RightShoulder
            {
                OFFSET -7.065357 33.973492 -0.192664
                CHANNELS 3 Zrotation Xrotation Yrotation
                JOINT RightArm
                {
                    OFFSET -21.527611 0.000000 0.000000
                    CHANNELS 3 Zrotation Xrotation Yrotation
                    JOINT RightForeArm
                    {
                        OFFSET -56.353916 0.000000 0.000000
                        CHANNELS 3 Zrotation Xrotation Yrotation
                        JOINT RightHand
                        {
                            OFFSET -47.774071 0.000000 0.000000
                            CHANNELS 3 Zrotation Xrotation Yrotation
                            End Site
                            {
                                OFFSET -26.556021 0.000000 0.000000
                            }
                        }
                    }
                }
            }
        }
    }
    JOINT LeftUpLeg
    {
        OFFSET 17.704014 0.000000 0.000000
        CHANNELS 3 Zrotation Xrotation Yrotation
        JOINT LeftLeg
        {
            OFFSET -0.000000 -81.181816 0.000000
            CHANNELS 3 Zrotation Xrotation Yrotation
            JOINT LeftFoot
            {
                OFFSET -0.000000 -62.821102 0.000000
                CHANNELS 3 Zrotation Xrotation Yrotation
                JOINT LeftToeBase
                {
                    OFFSET -0.000000 -11.507608 26.556021
                    CHANNELS 3 Zrotation Xrotation Yrotation
                    End Site
                    {
                        OFFSET -0.000000 0.000000 7.081605
                    }
                }
            }
        }
    }
    JOINT RightUpLeg
    {
        OFFSET -17.704014 0.000000 0.000000
        CHANNELS 3 Zrotation Xrotation Yrotation
        JOINT RightLeg
        {
            OFFSET -0.000000 -81.181816 0.000000
            CHANNELS 3 Zrotation Xrotation Yrotation
            JOINT RightFoot
            {
                OFFSET -0.000000 -62.821102 0.000000
                CHANNELS 3 Zrotation Xrotation Yrotation
                JOINT RightToeBase
                {
                    OFFSET -0.000000 -11.507608 26.556021
                    CHANNELS 3 Zrotation Xrotation Yrotation
                    End Site
                    {
                        OFFSET -0.000000 0.000000 7.081605
                    }
                }
            }
        }
    }
}
MOTION
Frames:    10
Frame Time:    0.008333
40.139374    157.202423    44.762524    35.367119    5.905597    -77.157913    5.922634    14.743217    0.877943    1.080157    -3.320058    0.563919    20.230968    -1.438540    10.601705    -15.547483    4.605432    6.139890    13.561028    1.605669    -14.545074    -9.626055    -7.763749    -16.851973    19.037960    -5.989615    -42.691833    -5.957715    3.861322    -42.923054    -9.717646    -3.486279    -4.880095    25.524483    -27.419016    37.079250    5.132115    -24.532986    101.772690    14.372757    -26.752501    29.907036    37.129749    -47.678654    28.722546    -16.897793    17.008448    1.617466    -17.925159    3.525958    54.744438    0.000000    0.000000    0.000000    -41.897263    -48.333153    -35.348900    7.187959    23.288301    -10.615108    10.227082    11.513418    -3.030075    0.000000    0.000000    0.000000    
40.137215    157.198074    44.756386    35.336365    5.901616    -77.173996    5.898608    14.726253    0.880706    1.073368    -3.319151    0.563356    20.277523    -1.444343    10.607314    -15.583021    4.635261    6.137280    13.583053    1.609336    -14.559193    -9.610938    -7.811981    -16.846806    18.996796    -5.952463    -42.661484    -5.940555    3.867608    -42.893295    -9.716430    -3.503490    -4.877778    25.499834    -27.392338    37.062084    5.151791    -24.524048    101.777100    14.371718    -26.762310    29.936996    37.137238    -47.641418    28.724045    -16.901667    17.019171    1.601455    -17.913782    3.520871    54.734859    0.000000    0.000000    0.000000    -41.851555    -48.323196    -35.303062    7.181514    23.287523    -10.615520    10.228916    11.507934    -3.007765    0.000000    0.000000    0.000000    
40.171478    157.179565    44.733406    35.397907    5.869224    -77.201744    5.777107    14.617705    0.908145    1.118366    -3.311713    0.566781    20.290449    -1.446035    10.600712    -15.589833    4.650240    6.129257    13.592971    1.615417    -14.576929    -9.588923    -7.805413    -16.844393    19.001152    -5.968307    -42.614117    -5.944785    3.845043    -42.878242    -9.716243    -3.511714    -4.886750    25.466936    -27.359554    37.058968    5.125849    -24.550638    101.754364    14.373507    -26.758106    29.927452    37.178879    -47.683674    28.810253    -16.924358    17.036287    1.620722    -17.930052    3.514301    54.755001    0.000000    0.000000    0.000000    -41.944660    -48.410583    -35.390888    7.169358    23.336123    -10.609490    10.221087    11.484919    -2.979507    0.000000    0.000000    0.000000    
40.166698    157.166580    44.727886    35.361839    5.867725    -77.208961    5.744972    14.594737    0.907450    1.139248    -3.311899    0.565413    20.330387    -1.437680    10.600923    -15.649384    4.679279    6.122125    13.597406    1.629056    -14.590804    -9.573081    -7.769722    -16.840923    19.038626    -5.994039    -42.560249    -5.954301    3.827872    -42.881901    -9.734235    -3.515468    -4.880328    25.465736    -27.365021    37.048992    5.148900    -24.507816    101.766571    14.357358    -26.747021    29.926245    37.192772    -47.649662    28.816622    -16.941069    17.059816    1.615057    -17.912178    3.506275    54.737797    0.000000    0.000000    0.000000    -41.904472    -48.395855    -35.388203    7.149525    23.357962    -10.588197    10.218294    11.464937    -2.949573    0.000000    0.000000    0.000000    
40.388672    156.827164    44.979748    36.022198    6.742414    -78.111336    6.903282    13.196567    1.475899    0.492536    -2.688499    0.755885    20.333078    -1.466573    10.602966    -15.636850    4.749730    6.129467    13.588161    1.628764    -14.629560    -9.544347    -7.726602    -16.806961    19.068470    -6.033232    -42.522163    -5.983444    3.803702    -42.867638    -9.740257    -3.501347    -4.868810    25.474699    -27.416639    37.041035    5.206269    -24.418732    101.801933    14.323824    -26.737770    29.900084    39.454338    -47.942711    30.797211    -17.346804    17.615614    1.663065    -17.018179    2.649959    54.369144    0.000000    0.000000    0.000000    -41.384697    -49.607197    -35.540546    7.212322    23.371222    -10.599130    10.177766    11.846814    -2.998736    0.000000    0.000000    0.000000    
40.150917    157.142944    44.739254    35.268341    5.860522    -77.215141    5.725392    14.554617    0.898560    1.141924    -3.298665    0.560843    20.356146    -1.473428    10.602257    -15.675174    4.788836    6.125080    13.590214    1.641503    -14.646877    -9.535314    -7.707129    -16.807854    19.080484    -6.064290    -42.486530    -5.988132    3.773008    -42.878860    -9.756814    -3.480931    -4.873872    25.476936    -27.458492    37.052383    5.210688    -24.357428    101.786156    14.355467    -26.672705    29.904694    37.187641    -47.571438    28.801289    -16.965467    17.115417    1.601798    -17.882444    3.462628    54.710999    0.000000    0.000000    0.000000    -41.844452    -48.350689    -35.617092    7.030801    23.458048    -10.286738    10.202908    11.440046    -2.907513    0.000000    0.000000    0.000000    
40.364925    156.802460    44.993011    35.922985    6.731089    -78.114174    6.875614    13.162321    1.458306    0.500128    -2.688414    0.748393    20.361088    -1.433186    10.600536    -15.668474    4.765019    6.127249    13.587119    1.650798    -14.654543    -9.520331    -7.664337    -16.803352    19.093702    -6.107205    -42.455750    -6.011132    3.740435    -42.914501    -9.745426    -3.453218    -4.857836    25.463854    -27.478840    37.052914    5.212506    -24.338552    101.791336    14.344417    -26.661322    29.890615    39.443741    -47.858582    30.778179    -17.386599    17.677244    1.666564    -16.973305    2.618907    54.325191    0.000000    0.000000    0.000000    -41.309879    -49.536491    -35.454567    7.227928    23.399921    -10.623717    10.173903    11.817268    -2.960985    0.000000    0.000000    0.000000    
40.133038    157.119995    44.750801    35.182655    5.856383    -77.219276    5.706972    14.511085    0.879213    1.129058    -3.316797    0.552741    20.360107    -1.428124    10.591079    -15.638979    4.787006    6.124474    13.596106    1.651181    -14.663758    -9.512594    -7.613902    -16.810411    19.126453    -6.122309    -42.416645    -6.000399    3.728394    -42.944214    -9.750770    -3.453703    -4.846302    25.446354    -27.474258    37.021286    5.223524    -24.325117    101.808060    14.343641    -26.662354    29.889751    37.201603    -47.503036    28.796295    -17.011824    17.177416    1.602993    -17.846327    3.415480    54.695133    0.000000    0.000000    0.000000    -41.762630    -48.280136    -35.264980    7.154825    23.420713    -10.568707    10.207368    11.406740    -2.890846    0.000000    0.000000    0.000000    
40.341793    156.782623    45.006062    35.824631    6.722955    -78.109047    6.855814    13.133922    1.432210    0.495588    -2.713879    0.738377    20.334724    -1.440697    10.583175    -15.584291    4.826672    6.129167    13.578959    1.659733    -14.664160    -9.495315    -7.578433    -16.814981    19.144285    -6.134667    -42.390308    -5.999615    3.719084    -42.967842    -9.766685    -3.431729    -4.837152    25.461569    -27.487442    37.023182    5.240433    -24.304031    101.836731    14.352264    -26.663292    29.873615    39.427925    -47.785492    30.757208    -17.415783    17.741089    1.646350    -16.944164    2.575299    54.313782    0.000000    0.000000    0.000000    -41.245548    -49.467884    -35.354740    7.254517    23.435575    -10.640761    10.176441    11.795613    -2.960722    0.000000    0.000000    0.000000    
40.105671    157.100250    44.775288    35.085693    5.841347    -77.211876    5.688431    14.478803    0.845894    1.114210    -3.340467    0.540219    20.325098    -1.499438    10.580747    -15.513979    4.922065    6.137637    13.595072    1.665455    -14.651060    -9.504801    -7.586760    -16.845566    19.137419    -6.094247    -42.391342    -5.972099    3.746476    -42.972530    -9.768187    -3.427408    -4.844604    25.451969    -27.430437    37.009850    5.181924    -24.362623    101.821312    14.394717    -26.638569    29.918751    37.169472    -47.432194    28.791704    -17.030243    17.248734    1.578502    -17.799301    3.384296    54.657791    0.000000    0.000000    0.000000    -41.716469    -48.206459    -35.157272    7.191747    23.459047    -10.603754    10.223771    11.383127    -2.900548    0.000000    0.000000    0.000000    
